<svg width="192" height="185" viewBox="0 0 192 185" fill="none" xmlns="http://www.w3.org/2000/svg">
<path d="M9.44228 48.7469L56.2707 21.86C56.9374 21.4773 57.7686 21.9585 57.7686 22.7273V47L8.35588 75.5803C7.38002 76.1447 6.14956 76.136 5.29729 75.398C1.30456 71.941 -0.0340702 66.5583 0.000655865 61.7554C0.0424307 55.9775 4.43148 51.6239 9.44228 48.7469Z" fill="url(#paint0_linear_469_403)"/>
<path d="M83 5.55425C83 5.20946 83.1776 4.88899 83.47 4.70625L89.47 0.956249C90.136 0.539969 91 1.01881 91 1.80425V25.4458C91 25.7905 90.8224 26.111 90.53 26.2938L84.53 30.0438C83.864 30.46 83 29.9812 83 29.1958V5.55425Z" fill="#FF7903"/>
<path d="M72 12.5542C72 12.2095 72.1776 11.889 72.47 11.7062L78.47 7.95625C79.136 7.53997 80 8.01881 80 8.80425V32.4458C80 32.7905 79.8224 33.111 79.53 33.2938L73.53 37.0438C72.864 37.46 72 36.9812 72 36.1958V12.5542Z" fill="#FF7903"/>
<path d="M60.7695 19.5542C60.7695 19.2095 60.9472 18.889 61.2395 18.7062L67.2395 14.9562C67.9056 14.54 68.7695 15.0188 68.7695 15.8042V39.4458C68.7695 39.7905 68.5919 40.111 68.2995 40.2938L62.2995 44.0438C61.6335 44.46 60.7695 43.9812 60.7695 43.1958V19.5542Z" fill="#FF7903"/>
<path d="M10.934 79.7248C9.61684 78.9584 9.60651 77.0593 10.9153 76.2785L28.9907 65.4961C30.5402 64.5717 32.4675 64.5539 34.0338 65.4494L94.4964 100.017C94.4975 100.017 94.4987 100.018 94.5 100.018L94.4983 124.871C94.4982 126.413 92.8257 127.375 91.4924 126.599L10.934 79.7248Z" fill="url(#paint1_linear_469_403)"/>
<path d="M182.327 103.747L135.499 76.86C134.832 76.4773 134.001 76.9585 134.001 77.7273V102L183.414 130.58C184.389 131.145 185.62 131.136 186.472 130.398C190.465 126.941 191.804 121.558 191.769 116.755C191.727 110.978 187.338 106.624 182.327 103.747Z" fill="url(#paint2_linear_469_403)"/>
<path d="M109 60.5542C109 60.2095 108.822 59.889 108.53 59.7062L102.53 55.9562C101.864 55.54 101 56.0188 101 56.8042V80.4458C101 80.7905 101.178 81.111 101.47 81.2938L107.47 85.0438C108.136 85.46 109 84.9812 109 84.1958V60.5542Z" fill="#A040EC"/>
<path d="M120 67.5542C120 67.2095 119.822 66.889 119.53 66.7062L113.53 62.9562C112.864 62.54 112 63.0188 112 63.8042V87.4458C112 87.7905 112.178 88.111 112.47 88.2938L118.47 92.0438C119.136 92.46 120 91.9812 120 91.1958V67.5542Z" fill="#A040EC"/>
<path d="M131.227 74.5542C131.227 74.2095 131.049 73.889 130.757 73.7062L124.757 69.9562C124.09 69.54 123.227 70.0188 123.227 70.8042V94.4458C123.227 94.7905 123.404 95.111 123.697 95.2938L129.697 99.0438C130.363 99.46 131.227 98.9812 131.227 98.1958V74.5542Z" fill="#A040EC"/>
<path d="M181.566 135.725C182.883 134.958 182.893 133.059 181.585 132.279L163.509 121.496C161.96 120.572 160.032 120.554 158.466 121.449L98.0033 156.017C98.0021 156.017 98.0009 156.018 97.9996 156.018L98.0013 180.871C98.0014 182.413 99.6739 183.375 101.007 182.599L181.566 135.725Z" fill="url(#paint3_linear_469_403)"/>
<defs>
<linearGradient id="paint0_linear_469_403" x1="58" y1="36" x2="8" y2="65" gradientUnits="userSpaceOnUse">
<stop stop-color="#FF7903"/>
<stop offset="1" stop-color="#730CC2"/>
</linearGradient>
<linearGradient id="paint1_linear_469_403" x1="27.2305" y1="70.0176" x2="94.7305" y2="110.518" gradientUnits="userSpaceOnUse">
<stop stop-color="#740DC2"/>
<stop offset="1" stop-color="#A040EC"/>
</linearGradient>
<linearGradient id="paint2_linear_469_403" x1="133.769" y1="91" x2="183.769" y2="120" gradientUnits="userSpaceOnUse">
<stop stop-color="#A040EC"/>
<stop offset="1" stop-color="#730DC2"/>
</linearGradient>
<linearGradient id="paint3_linear_469_403" x1="102" y1="170.018" x2="167.5" y2="131.017" gradientUnits="userSpaceOnUse">
<stop offset="0.235" stop-color="#FF7903"/>
<stop offset="1" stop-color="#740DC2"/>
</linearGradient>
</defs>
</svg>
